<?xml version="1.0" standalone="no"?>
<!DOCTYPE svg PUBLIC "-//W3C//DTD SVG 20010904//EN"
 "http://www.w3.org/TR/2001/REC-SVG-20010904/DTD/svg10.dtd">
<svg version="1.0" xmlns="http://www.w3.org/2000/svg"
 width="376.000000pt" height="376.000000pt" viewBox="0 0 376.000000 376.000000"
 preserveAspectRatio="xMidYMid meet">

<g transform="translate(0.000000,376.000000) scale(0.100000,-0.100000)"
fill="#000000" stroke="none">
<path d="M1550 3389 c-246 -28 -502 -124 -692 -259 -165 -118 -326 -306 -418
-490 -45 -89 -104 -276 -126 -395 -25 -137 -25 -460 -1 -592 29 -156 65 -262
132 -398 75 -151 138 -239 251 -351 284 -280 722 -432 1143 -395 186 17 390
70 524 138 l48 24 90 -185 c49 -102 89 -190 89 -196 0 -7 198 -10 585 -10
l585 0 0 240 0 240 -303 0 -304 0 -107 177 -107 177 49 96 c185 356 224 824
101 1225 -103 337 -334 620 -639 784 -266 142 -595 204 -900 170z m385 -719
c110 -34 192 -85 280 -174 56 -56 93 -104 119 -154 116 -224 117 -570 2 -790
-121 -230 -346 -364 -611 -364 -265 0 -490 134 -611 364 -86 164 -110 421 -60
622 68 265 257 452 520 512 89 20 271 12 361 -16z"/>
</g>
</svg>
